<?xml version="1.0" encoding="UTF-8"?>
<svg width="16" height="16" viewBox="0 0 16 16" xmlns="http://www.w3.org/2000/svg">
    <!-- Rounded square outline drawn as a filled donut (outer rect minus inner rect, fill-rule evenodd). -->
    <path fill-rule="evenodd" d="M3 1h10a2 2 0 0 1 2 2v10a2 2 0 0 1-2 2H3a2 2 0 0 1-2-2V3a2 2 0 0 1 2-2zM3 2a1 1 0 0 0-1 1v10a1 1 0 0 0 1 1h10a1 1 0 0 0 1-1V3a1 1 0 0 0-1-1H3z"/>
    <!-- Down-pointing chevron drawn as a filled polygon (~1px thick). -->
    <path d="M4.5 6.5l3.5 3.5 3.5-3.5-.7-.7-2.8 2.8-2.8-2.8z"/>
</svg>
